:version 1.10
:name ASF
:units
  mass 1
  length 1
  angle deg
:documentation
  ASF file generated by Kaydara
:root
  axis xyz
  order  tx ty tz rx ry rz
  position 0 0 0
  orientation 0 0 0
:bonedata
  begin
    id 1
    name abdomenDummy
    direction 1 -1.27917e-005 -1.26829e-007
    length 1.79048
    axis 0 0 0 xyz
  end
  begin
    id 2
    name abdomen
    direction 0.987238 0.159249 -9.68575e-008
    length 8.61378
    axis 2.73208e-005 5.54953e-006 9.16328 xyz
    dof rx ry rz
  end
  begin
    id 3
    name chest
    direction 0 0 0
    length 0
    axis 2.65071e-005 8.63688e-006 2.59796 xyz
    dof rx ry rz
  end
  begin
    id 4
    name neckDummyDummy
    direction 0.998972 0.0453274 -1.50742e-007
    length 9.56202
    axis 2.65071e-005 8.63688e-006 2.59796 xyz
  end
  begin
    id 5
    name neckDummy
    direction 0.99977 0.0214525 -1.61748e-007
    length 1.93574
    axis 2.62932e-005 9.26758e-006 1.22924 xyz
    dof rx ry rz
  end
  begin
    id 6
    name neck
    direction 0.99928 -0.0379406 -1.88707e-007
    length 3.70367
    axis 2.56966e-005 1.08122e-005 -2.17436 xyz
    dof rx ry rz
  end
  begin
    id 7
    name head
    direction 0.992648 -0.121037 -2.25408e-007
    length 6.35158
    axis 2.47068e-005 1.29149e-005 -6.95196 xyz
    dof rx ry rz
  end
  begin
    id 8
    name figureHair
    direction -0.86681 -0.498639 -7.83376e-008
    length 8.29884
    axis -2.7515e-005 4.48842e-006 -150.09 xyz
    dof rx ry rz
  end
  begin
    id 9
    name lCollarDummy
    direction 0.994611 0.0451299 -0.0933417
    length 9.60395
    axis 2.65071e-005 8.63688e-006 2.59796 xyz
  end
  begin
    id 10
    name lCollar
    direction 0.0384146 0.00127577 -0.999261
    length 6.95318
    axis 90.4899 87.7973 1.90202 xyz
    dof rx ry rz
  end
  begin
    id 11
    name lShldr
    direction -0.030648 0.0920515 -0.995282
    length 9.61158
    axis -161.793 84.4324 108.415 xyz
    dof rx ry rz
  end
  begin
    id 12
    name lForeArm
    direction 0.000163956 -0.0977586 -0.99521
    length 8.6068
    axis 0.134773 84.3899 -89.8525 xyz
    dof rx ry rz
  end
  begin
    id 13
    name lHand
    direction -0.0190533 -0.1444 -0.989336
    length 7.61479
    axis -7.3729 81.6249 -97.517 xyz
    dof rx ry rz
  end
  begin
    id 14
    name rCollarDummy
    direction 0.994871 0.0442627 0.0909555
    length 9.60761
    axis 2.65071e-005 8.63688e-006 2.59796 xyz
  end
  begin
    id 15
    name rCollar
    direction 0.0334251 -4.74072e-007 0.999441
    length 6.97058
    axis -178.152 -88.0845 -0.000674207 xyz
    dof rx ry rz
  end
  begin
    id 16
    name rShldr
    direction -0.026922 0.0719509 0.997045
    length 9.60913
    axis 71.2822 -85.594 110.514 xyz
    dof rx ry rz
  end
  begin
    id 17
    name rForeArm
    direction 0.00134679 -0.118986 0.992895
    length 8.57176
    axis -88.7923 -83.1659 -89.3516 xyz
    dof rx ry rz
  end
  begin
    id 18
    name rHand
    direction -0.0185183 -0.0768601 0.99687
    length 7.69687
    axis -74.5596 -85.4655 -103.546 xyz
    dof rx ry rz
  end
  begin
    id 19
    name lThighDummy
    direction -0.236086 -0.0385456 -0.970967
    length 4.99155
    axis 0 0 0 xyz
  end
  begin
    id 20
    name lThigh
    direction -0.993968 0.0148998 -0.108653
    length 13.572
    axis -91.4001 6.23768 179.141 xyz
    dof rx ry rz
  end
  begin
    id 21
    name lShin
    direction -0.992341 0.0904576 -0.0841193
    length 18.5862
    axis -91.4558 4.82538 174.792 xyz
    dof rx ry rz
  end
  begin
    id 22
    name lFoot
    direction 0.0209381 -0.999771 -0.00453005
    length 8.44474
    axis 4.86759 0.259522 -88.8001 xyz
    dof rx ry rz
  end
  begin
    id 23
    name rThighDummy
    direction -0.236086 -0.0385456 0.970967
    length 4.99155
    axis 0 0 0 xyz
  end
  begin
    id 24
    name rThigh
    direction -0.993968 0.0148995 0.108653
    length 13.5721
    axis -89.7059 -6.2377 179.141 xyz
    dof rx ry rz
  end
  begin
    id 25
    name rShin
    direction -0.9925 0.0899962 0.0827255
    length 18.6716
    axis -89.2745 -4.74775 174.819 xyz
    dof rx ry rz
  end
  begin
    id 26
    name rFoot
    direction 0.0301721 -0.999545 9.70865e-005
    length 8.45013
    axis -2.50066e-005 -0.00555246 -88.271 xyz
    dof rx ry rz
  end
:hierarchy
  begin
    root abdomenDummy lThighDummy rThighDummy
    abdomenDummy abdomen
    abdomen chest
    chest neckDummyDummy lCollarDummy rCollarDummy
    neckDummyDummy neckDummy
    neckDummy neck
    neck head
    head figureHair
    lCollarDummy lCollar
    lCollar lShldr
    lShldr lForeArm
    lForeArm lHand
    rCollarDummy rCollar
    rCollar rShldr
    rShldr rForeArm
    rForeArm rHand
    lThighDummy lThigh
    lThigh lShin
    lShin lFoot
    rThighDummy rThigh
    rThigh rShin
    rShin rFoot
  end

:SAMPLES-PER-SECOND 25
:FULLY-SPECIFIED
:DEGREES
1
root  2.33703 37.0937 -1.36577 -179.911 -0.125519 91.8437
abdomen  -0.023576 -0.148726 0.00362308
chest  0.00387656 -0.00301115 0.00168705
neckDummy  9.09964e-021 0 8.72668e-016
neck  0.543223 2.51402 0.00816751
head  -0.33739 -2.56619 0.00294828
figureHair  0 1.51661e-021 -9.5315e-016
lCollar  -5.15695e-016 -6.42944e-016 -7.59357e-014
lShldr  -13.032 0.598384 -1.50856
lForeArm  13.2072 0.158519 -5.86974
lHand  0.254698 0.195082 5.2986
rCollar  1.7976e-016 -5.12864e-014 1.62755e-015
rShldr  13.5598 -1.30728 8.59821
rForeArm  -12.9831 6.88194 -2.42293
rHand  0.299572 -4.63966 -1.72921
lThigh  -7.04099 -2.97199 -0.0907779
lShin  -10.4909 0.745086 -4.87597
lFoot  5.28048 -0.446833 -3.00582
rThigh  8.74813 -4.26235 -0.24049
rShin  2.92692 3.54766 3.39484
rFoot  -4.74801 0.29682 -2.23202
2
root  2.33319 37.0937 -1.36577 -179.929 -0.11705 91.833
abdomen  -0.0306731 -0.190403 0.000990958
chest  0.0140191 0.0608441 -0.0177894
neckDummy  9.09964e-021 0 8.72668e-016
neck  0.507042 2.41968 -0.0036881
head  -0.344742 -2.55097 -0.0197573
figureHair  0 1.51661e-021 -9.5315e-016
lCollar  -5.15695e-016 -6.42944e-016 -7.59357e-014
lShldr  -13.0329 0.615207 -1.48454
lForeArm  13.235 0.109183 -5.85572
lHand  0.254698 0.195082 5.2986
rCollar  1.7976e-016 -5.12864e-014 1.62755e-015
rShldr  13.5573 -1.28579 8.61388
rForeArm  -13.0195 6.8892 -2.45942
rHand  0.300455 -4.50067 -1.77642
lThigh  -7.03654 -2.92727 -0.0976046
lShin  -10.507 0.707526 -4.88432
lFoot  5.27804 -0.446871 -3.00583
rThigh  8.75735 -4.26075 -0.249548
rShin  2.89987 3.57034 3.39037
rFoot  -4.73124 0.295915 -2.22558
3
root  2.32874 37.0937 -1.36548 -179.944 -0.106873 91.8313
abdomen  -0.0421899 -0.218708 -0.00935926
chest  0.0115493 0.0896836 -0.0479865
neckDummy  9.09964e-021 0 8.72668e-016
neck  0.4596 2.36102 -0.0152738
head  -0.377577 -2.59051 0.00470591
figureHair  0 1.51661e-021 -9.5315e-016
lCollar  -5.15695e-016 -6.42944e-016 -7.59357e-014
lShldr  -13.0345 0.664065 -1.47944
lForeArm  13.3136 0.0490412 -5.82991
lHand  0.254698 0.195082 5.2986
rCollar  1.7976e-016 -5.12864e-014 1.62755e-015
rShldr  13.5272 -1.25125 8.61933
rForeArm  -12.8772 6.8964 -2.48406
rHand  0.300779 -4.44663 -1.79374
lThigh  -7.03103 -2.87794 -0.104798
lShin  -10.5247 0.650045 -4.89906
lFoot  5.26027 -0.44639 -3.00567
rThigh  8.76836 -4.28708 -0.262647
rShin  2.87728 3.62998 3.38021
rFoot  -4.71966 0.297132 -2.20642
4
root  2.3265 37.0937 -1.36418 -179.947 -0.100586 91.8501
abdomen  -0.0358115 -0.244598 -0.0115842
chest  0.021866 0.0936057 -0.0736904
neckDummy  9.09964e-021 0 8.72668e-016
neck  0.419272 2.35817 -0.00337529
head  -0.42318 -2.66824 0.0825896
figureHair  0 1.51661e-021 -9.5315e-016
lCollar  -5.15695e-016 -6.42944e-016 -7.59357e-014
lShldr  -13.0554 0.614634 -1.48924
lForeArm  13.3828 0.117399 -5.81952
lHand  0.254698 0.195082 5.2986
rCollar  1.7976e-016 -5.12864e-014 1.62755e-015
rShldr  13.5518 -1.19619 8.54875
rForeArm  -12.7369 6.87804 -2.49168
rHand  0.300079 -4.5516 -1.7563
lThigh  -7.0174 -2.88869 -0.114813
lShin  -10.5391 0.638112 -4.89581
lFoot  5.2273 -0.443929 -3.00536
rThigh  8.77461 -4.32254 -0.272862
rShin  2.87918 3.66227 3.3764
rFoot  -4.7005 0.297186 -2.1903
5
root  2.32342 37.0937 -1.36334 -179.958 -0.0904083 91.8792
abdomen  -0.0171166 -0.250734 -0.0282372
chest  0.0395343 0.0832499 -0.0402651
neckDummy  9.09964e-021 0 8.72668e-016
neck  0.398586 2.34748 0.00291157
head  -0.44556 -2.72875 0.124693
figureHair  0 1.51661e-021 -9.5315e-016
lCollar  -5.15695e-016 -6.42944e-016 -7.59357e-014
lShldr  -13.0396 0.541877 -1.47885
lForeArm  13.3808 0.188444 -5.83341
lHand  0.254698 0.195082 5.2986
rCollar  1.7976e-016 -5.12864e-014 1.62755e-015
rShldr  13.6388 -1.14391 8.48308
rForeArm  -12.8007 6.84752 -2.52968
rHand  0.29834 -4.6099 -1.71322
lThigh  -7.0011 -2.90726 -0.131639
lShin  -10.5648 0.625806 -4.89327
lFoot  5.2363 -0.444403 -3.01251
rThigh  8.77838 -4.34257 -0.285321
rShin  2.87157 3.65062 3.37664
rFoot  -4.68994 0.297411 -2.17984
6
root  2.31784 37.0937 -1.36251 -179.979 -0.074295 91.905
abdomen  -0.0144192 -0.195319 -0.0478457
chest  0.0210263 0.0058268 0.0204268
neckDummy  9.09964e-021 0 8.72668e-016
neck  0.401913 2.33746 -0.00455332
head  -0.438092 -2.71961 0.0944495
figureHair  0 1.51661e-021 -9.5315e-016
lCollar  -5.15695e-016 -6.42944e-016 -7.59357e-014
lShldr  -13.0043 0.591401 -1.46573
lForeArm  13.3721 0.139892 -5.84255
lHand  0.254698 0.195082 5.2986
rCollar  1.7976e-016 -5.12864e-014 1.62755e-015
rShldr  13.72 -1.13284 8.51604
rForeArm  -13.0081 6.82759 -2.557
rHand  0.292525 -4.52332 -1.69091
lThigh  -6.99324 -2.88521 -0.146164
lShin  -10.5952 0.563665 -4.91151
lFoot  5.29143 -0.447968 -3.03648
rThigh  8.77904 -4.35822 -0.296036
rShin  2.85604 3.6419 3.36743
rFoot  -4.68845 0.298433 -2.17045
7
root  2.3105 37.0937 -1.36112 -179.984 -0.0778656 91.9065
abdomen  -0.0291881 -0.180933 -0.0353765
chest  -0.0058465 -0.0444456 -0.00077343
neckDummy  9.09964e-021 0 8.72668e-016
neck  0.402146 2.30856 0.0172002
head  -0.421741 -2.61158 0.041275
figureHair  0 1.51661e-021 -9.5315e-016
lCollar  -5.15695e-016 -6.42944e-016 -7.59357e-014
lShldr  -13.0699 0.621434 -1.46284
lForeArm  13.432 0.15672 -5.82856
lHand  0.254698 0.195082 5.2986
rCollar  1.7976e-016 -5.12864e-014 1.62755e-015
rShldr  13.773 -1.14087 8.54299
rForeArm  -13.2612 6.81299 -2.50657
rHand  0.284643 -4.37186 -1.70673
lThigh  -6.99924 -2.86068 -0.142426
lShin  -10.5972 0.540404 -4.92232
lFoot  5.31466 -0.449659 -3.04265
rThigh  8.76464 -4.35247 -0.287236
rShin  2.86168 3.64403 3.35481
rFoot  -4.68567 0.298013 -2.17153
8
root  2.30114 37.0937 -1.35844 -179.977 -0.0942993 91.8768
abdomen  -0.0399985 -0.300572 -0.020994
chest  0.015883 0.0592342 -0.0878367
neckDummy  9.09964e-021 0 8.72668e-016
neck  0.377866 2.2186 0.0818739
head  -0.411321 -2.4772 -0.0204558
figureHair  0 1.51661e-021 -9.5315e-016
lCollar  -5.15695e-016 -6.42944e-016 -7.59357e-014
lShldr  -13.2268 0.483997 -1.44039
lForeArm  13.4917 0.341443 -5.80977
lHand  0.254698 0.195082 5.2986
rCollar  1.7976e-016 -5.12864e-014 1.62755e-015
rShldr  13.82 -1.11407 8.45563
rForeArm  -13.4599 6.79419 -2.42597
rHand  0.281392 -4.24302 -1.78252
lThigh  -7.01621 -2.85211 -0.125698
lShin  -10.5698 0.606715 -4.91501
lFoot  5.26686 -0.447212 -3.00814
rThigh  8.75578 -4.30609 -0.271279
rShin  2.87155 3.64429 3.35457
rFoot  -4.69651 0.298845 -2.17377
